<svg width="36" height="32" viewBox="0 0 36 32" fill="none" xmlns="http://www.w3.org/2000/svg">
  <rect x="0.5" y="0.5" width="35" height="31" rx="5.5" fill="white"/>
  <rect x="0.5" y="0.5" width="35" height="31" rx="5.5" stroke="#CCCCCC"/>
  <path fill-rule="evenodd" clip-rule="evenodd" d="M9.91699 16.2043C9.91699 12.1212 13.2271 8.81104 17.3103 8.81104C18.4039 8.81104 19.4407 9.04814 20.3733 9.47328C20.6246 9.58782 20.9211 9.47698 21.0357 9.22572C21.1502 8.97445 21.0394 8.6779 20.7881 8.56336C19.7279 8.08005 18.5498 7.81104 17.3103 7.81104C12.6748 7.81104 8.91699 11.5689 8.91699 16.2043C8.91699 20.8398 12.6748 24.5977 17.3103 24.5977C21.9458 24.5977 25.7036 20.8398 25.7036 16.2043C25.7036 15.8308 25.6792 15.4627 25.6318 15.1016C25.5958 14.8278 25.3447 14.635 25.0709 14.671C24.7971 14.7069 24.6043 14.958 24.6403 15.2318C24.682 15.5498 24.7036 15.8744 24.7036 16.2043C24.7036 20.2875 21.3935 23.5977 17.3103 23.5977C13.2271 23.5977 9.91699 20.2875 9.91699 16.2043ZM20.2452 14.1381C20.2452 13.6886 19.8808 13.3241 19.4312 13.3241C18.9816 13.3241 18.6172 13.6886 18.6172 14.1381C18.6172 14.5877 18.9816 14.9522 19.4312 14.9522C19.8808 14.9522 20.2452 14.5877 20.2452 14.1381ZM15.19 13.3241C15.6396 13.3241 16.004 13.6886 16.004 14.1382C16.004 14.5877 15.6396 14.9522 15.19 14.9522C14.7404 14.9522 14.376 14.5877 14.376 14.1382C14.376 13.6886 14.7404 13.3241 15.19 13.3241ZM14.9991 17.1019C14.9541 16.8295 14.6967 16.6451 14.4243 16.6901C14.1518 16.7351 13.9675 16.9925 14.0125 17.2649C14.1549 18.1272 14.5342 18.7902 15.1147 19.2454C15.686 19.6934 16.4072 19.9052 17.1793 19.9589L17.1967 19.9601H17.214C18.0433 19.9601 18.7848 19.7525 19.3583 19.2822C19.9351 18.8093 20.2853 18.1171 20.4165 17.259C20.4583 16.9861 20.2708 16.7309 19.9979 16.6892C19.7249 16.6474 19.4698 16.8349 19.428 17.1078C19.3252 17.7799 19.0692 18.2261 18.7243 18.509C18.3791 18.792 17.8891 18.9572 17.2313 18.96C16.5974 18.9135 16.0952 18.7436 15.7318 18.4585C15.3741 18.178 15.1064 17.7518 14.9991 17.1019ZM23.4971 8.58346C23.4971 8.30731 23.7209 8.08346 23.9971 8.08346C24.2732 8.08346 24.4971 8.30731 24.4971 8.58346V10.4168H26.3304C26.6065 10.4168 26.8304 10.6406 26.8304 10.9168C26.8304 11.1929 26.6065 11.4168 26.3304 11.4168H24.4971V13.4168C24.4971 13.6929 24.2732 13.9168 23.9971 13.9168C23.7209 13.9168 23.4971 13.6929 23.4971 13.4168V11.4168H21.4971C21.2209 11.4168 20.9971 11.1929 20.9971 10.9168C20.9971 10.6406 21.2209 10.4168 21.4971 10.4168H23.4971V8.58346Z" fill="#181818"/>
</svg>
