<svg width="88" height="36" viewBox="0 0 88 36" fill="none" xmlns="http://www.w3.org/2000/svg">
<rect x="0.5" y="0.5" width="87" height="35" rx="5.5" fill="white"/>
<rect x="0.5" y="0.5" width="87" height="35" rx="5.5" stroke="#CCCCCC"/>
<path fill-rule="evenodd" clip-rule="evenodd" d="M18.2996 18.2451C18.2996 13.3453 22.2718 9.3731 27.1716 9.3731C28.4839 9.3731 29.7281 9.65763 30.8472 10.1678C31.1487 10.3052 31.5046 10.1722 31.642 9.87071C31.7795 9.56919 31.6465 9.21334 31.345 9.07589C30.0727 8.49592 28.659 8.1731 27.1716 8.1731C21.609 8.1731 17.0996 12.6825 17.0996 18.2451C17.0996 23.8076 21.609 28.317 27.1716 28.317C32.7341 28.317 37.2436 23.8076 37.2436 18.2451C37.2436 17.7968 37.2142 17.3551 37.1573 16.9218C37.1142 16.5932 36.8129 16.3619 36.4843 16.405C36.1558 16.4482 35.9244 16.7495 35.9676 17.078C36.0177 17.4597 36.0436 17.8492 36.0436 18.2451C36.0436 23.1449 32.0714 27.117 27.1716 27.117C22.2718 27.117 18.2996 23.1449 18.2996 18.2451ZM30.6939 15.7657C30.6939 15.2262 30.2566 14.7888 29.7171 14.7888C29.1776 14.7888 28.7402 15.2262 28.7402 15.7657C28.7402 16.3051 29.1776 16.7425 29.7171 16.7425C30.2566 16.7425 30.6939 16.3051 30.6939 15.7657ZM24.6272 14.7888C25.1667 14.7888 25.6041 15.2262 25.6041 15.7657C25.6041 16.3051 25.1667 16.7425 24.6272 16.7425C24.0877 16.7425 23.6504 16.3051 23.6504 15.7657C23.6504 15.2262 24.0877 14.7888 24.6272 14.7888ZM24.3981 19.3222C24.3441 18.9952 24.0353 18.774 23.7084 18.828C23.3814 18.882 23.1602 19.1908 23.2142 19.5178C23.3851 20.5525 23.8403 21.3481 24.5368 21.8943C25.2224 22.432 26.0878 22.6861 27.0144 22.7505L27.0352 22.752H27.0561C28.0512 22.752 28.941 22.5029 29.6292 21.9385C30.3213 21.371 30.7416 20.5404 30.8991 19.5107C30.9492 19.1831 30.7242 18.877 30.3967 18.8269C30.0691 18.7768 29.7629 19.0017 29.7128 19.3293C29.5895 20.1358 29.2822 20.6712 28.8683 21.0106C28.4542 21.3502 27.8661 21.5485 27.0768 21.5519C26.3161 21.4961 25.7135 21.2921 25.2773 20.9501C24.8481 20.6135 24.527 20.1021 24.3981 19.3222ZM34.5957 9.1C34.5957 8.76863 34.8643 8.5 35.1957 8.5C35.5271 8.5 35.7957 8.76863 35.7957 9.1V11.3H37.9957C38.3271 11.3 38.5957 11.5686 38.5957 11.9C38.5957 12.2314 38.3271 12.5 37.9957 12.5H35.7957V14.9C35.7957 15.2314 35.5271 15.5 35.1957 15.5C34.8643 15.5 34.5957 15.2314 34.5957 14.9V12.5H32.1957C31.8643 12.5 31.5957 12.2314 31.5957 11.9C31.5957 11.5686 31.8643 11.3 32.1957 11.3H34.5957V9.1Z" fill="#181818"/>
<path d="M57.2818 19.7624V20.989H51.6188V25.3481H50.1602V20.989H44.5193V19.7624H57.2818ZM45.2652 17.6133C47.9227 17.2762 50.0608 15.7901 50.1547 14.2155H45.7238V13.0221H50.1602V11.326H51.6188V13.0221H56.0663V14.2155H51.6409C51.7238 15.779 53.8398 17.2762 56.5083 17.6133L55.9669 18.7956C53.7182 18.4862 51.8066 17.4309 50.9006 16C49.989 17.4475 48.0608 18.4807 45.8066 18.7956L45.2652 17.6133ZM69.2535 11.326V16.9061H71.4248V18.1492H69.2535V25.3094H67.7674V11.326H69.2535ZM58.353 21.5801C61.8668 19.8287 63.7674 17.2983 64.0823 14.0331H59.0546V12.8066H65.5906C65.5795 16.8453 63.795 20.4586 59.1817 22.7293L58.353 21.5801Z" fill="#181818"/>
</svg>
